<svg xmlns="http://www.w3.org/2000/svg" viewBox="0 0 512 512"><defs>
  <clipPath id="tileclip"><rect width="512" height="512" rx="112"/></clipPath>
  <linearGradient id="bgSunset" x1="0" y1="0" x2="0" y2="1"><stop offset="0" stop-color="#141c2c"/><stop offset=".6" stop-color="#0d1220"/><stop offset="1" stop-color="#090c14"/></linearGradient>
  <linearGradient id="neg" x1="0" y1="0" x2="0" y2="1"><stop offset="0" stop-color="#FFC24D"/><stop offset=".5" stop-color="#FF7A4D"/><stop offset="1" stop-color="#FF5E8A"/></linearGradient>
  <filter id="filmglow" x="-40%" y="-40%" width="180%" height="180%"><feGaussianBlur stdDeviation="13"/></filter>
</defs>
<g clip-path="url(#tileclip)">
  <rect width="512" height="512" fill="url(#bgSunset)"/>
  <rect x="56" y="146" width="400" height="220" rx="16" fill="#181C26"/>
  <g fill="#0b0d13">
    <rect x="78" y="156" width="20" height="20" rx="5"/><rect x="134" y="156" width="20" height="20" rx="5"/><rect x="190" y="156" width="20" height="20" rx="5"/><rect x="246" y="156" width="20" height="20" rx="5"/><rect x="302" y="156" width="20" height="20" rx="5"/><rect x="358" y="156" width="20" height="20" rx="5"/><rect x="414" y="156" width="20" height="20" rx="5"/>
    <rect x="78" y="336" width="20" height="20" rx="5"/><rect x="134" y="336" width="20" height="20" rx="5"/><rect x="190" y="336" width="20" height="20" rx="5"/><rect x="246" y="336" width="20" height="20" rx="5"/><rect x="302" y="336" width="20" height="20" rx="5"/><rect x="358" y="336" width="20" height="20" rx="5"/><rect x="414" y="336" width="20" height="20" rx="5"/>
  </g>
  <rect x="88" y="184" width="336" height="144" rx="14" fill="#FF9D4D" opacity=".5" filter="url(#filmglow)"/>
  <rect x="96" y="192" width="320" height="128" rx="12" fill="url(#neg)"/>
</g>
</svg>
